<svg viewBox="0 0 100 100" xmlns="http://www.w3.org/2000/svg" fill-rule="evenodd" clip-rule="evenodd" stroke-linejoin="round" stroke-miterlimit="2"><circle cx="20.151" cy="19.124" r="13.041" transform="matrix(.76682 0 0 .76682 4.548 35.336)"/><circle cx="20.151" cy="19.124" r="13.041" transform="matrix(.76682 0 0 .76682 34.548 5.336)"/><circle cx="20.151" cy="19.124" r="13.041" transform="matrix(.76682 0 0 .76682 4.548 5.336)"/><circle cx="20.151" cy="19.124" r="13.041" transform="matrix(.76682 0 0 .76682 64.548 5.336)"/><circle cx="20.151" cy="19.124" r="13.041" transform="matrix(.76682 0 0 .76682 34.548 65.336)"/><circle cx="20.151" cy="19.124" r="13.041" transform="matrix(.76682 0 0 .76682 4.548 65.336)"/><circle cx="20.151" cy="19.124" r="13.041" transform="matrix(.76682 0 0 .76682 64.548 63.87)"/></svg>